<?xml version="1.0" encoding="iso-8859-1"?>
<!-- Generator: Adobe Illustrator 19.0.0, SVG Export Plug-In . SVG Version: 6.00 Build 0)  -->
<svg version="1.1" id="Layer_1" xmlns="http://www.w3.org/2000/svg" xmlns:xlink="http://www.w3.org/1999/xlink" x="0px" y="0px"
	 viewBox="0 0 320 320" style="enable-background:new 0 0 320 320;" xml:space="preserve">
<g id="XMLID_106_">
	<path id="XMLID_107_" d="M160,0c-8.284,0-15,6.717-15,15v10.344c-50.816,7.301-90,51.118-90,103.923V260h-5
		c-8.284,0-15,6.717-15,15c0,8.285,6.716,15,15,15h67.58c6.192,17.459,22.865,30,42.42,30s36.227-12.541,42.42-30H270
		c8.284,0,15-6.715,15-15c0-8.283-6.716-15-15-15h-5V129.267c0-52.805-39.184-96.622-90-103.923V15C175,6.717,168.284,0,160,0z"/>
</g>
<g>
</g>
<g>
</g>
<g>
</g>
<g>
</g>
<g>
</g>
<g>
</g>
<g>
</g>
<g>
</g>
<g>
</g>
<g>
</g>
<g>
</g>
<g>
</g>
<g>
</g>
<g>
</g>
<g>
</g>
</svg>
