<svg id="visual" viewBox="0 0 900 600" width="900" height="600" xmlns="http://www.w3.org/2000/svg" xmlns:xlink="http://www.w3.org/1999/xlink" version="1.1"><g stroke-width="1" stroke-linejoin="bevel"><path d="M493 297L487 370L574 336Z" fill="#f3e4db" stroke="#f3e4db"></path><path d="M463 172L439 234L493 297Z" fill="#e2cabe" stroke="#e2cabe"></path><path d="M493 297L386 310L487 370Z" fill="#eddcd1" stroke="#eddcd1"></path><path d="M589 461L630 417L574 336Z" fill="#eddcd1" stroke="#eddcd1"></path><path d="M439 234L386 310L493 297Z" fill="#eddcd1" stroke="#eddcd1"></path><path d="M487 370L589 461L574 336Z" fill="#fff6f0" stroke="#fff6f0"></path><path d="M513 511L589 461L487 370Z" fill="#d1b0a3" stroke="#d1b0a3"></path><path d="M386 310L413 426L487 370Z" fill="#eddcd1" stroke="#eddcd1"></path><path d="M691 315L579 198L574 336Z" fill="#c69e92" stroke="#c69e92"></path><path d="M574 336L579 198L493 297Z" fill="#f9ede6" stroke="#f9ede6"></path><path d="M630 417L691 315L574 336Z" fill="#f9ede6" stroke="#f9ede6"></path><path d="M718 478L677 416L630 417Z" fill="#c69e92" stroke="#c69e92"></path><path d="M630 417L677 416L691 315Z" fill="#d7b8ac" stroke="#d7b8ac"></path><path d="M413 426L513 511L487 370Z" fill="#c69e92" stroke="#c69e92"></path><path d="M589 461L718 478L630 417Z" fill="#e8d3c8" stroke="#e8d3c8"></path><path d="M579 198L463 172L493 297Z" fill="#e8d3c8" stroke="#e8d3c8"></path><path d="M268 169L293 314L386 310Z" fill="#c69e92" stroke="#c69e92"></path><path d="M299 480L400 495L413 426Z" fill="#d1b0a3" stroke="#d1b0a3"></path><path d="M413 426L400 495L513 511Z" fill="#e2cabe" stroke="#e2cabe"></path><path d="M293 314L311 396L386 310Z" fill="#fff6f0" stroke="#fff6f0"></path><path d="M386 310L311 396L413 426Z" fill="#dcc1b5" stroke="#dcc1b5"></path><path d="M268 169L386 310L439 234Z" fill="#c69e92" stroke="#c69e92"></path><path d="M691 315L685 162L579 198Z" fill="#dcc1b5" stroke="#dcc1b5"></path><path d="M579 198L472 94L463 172Z" fill="#e2cabe" stroke="#e2cabe"></path><path d="M682 600L718 478L589 461Z" fill="#f9ede6" stroke="#f9ede6"></path><path d="M792 399L771 302L691 315Z" fill="#d1b0a3" stroke="#d1b0a3"></path><path d="M691 315L771 191L685 162Z" fill="#d1b0a3" stroke="#d1b0a3"></path><path d="M622 78L472 94L579 198Z" fill="#f3e4db" stroke="#f3e4db"></path><path d="M463 172L377 107L439 234Z" fill="#fff6f0" stroke="#fff6f0"></path><path d="M792 399L691 315L677 416Z" fill="#cca79a" stroke="#cca79a"></path><path d="M438 600L513 511L400 495Z" fill="#eddcd1" stroke="#eddcd1"></path><path d="M438 600L484 600L513 511Z" fill="#c69e92" stroke="#c69e92"></path><path d="M513 511L574 600L589 461Z" fill="#fff6f0" stroke="#fff6f0"></path><path d="M209 422L299 480L311 396Z" fill="#fff6f0" stroke="#fff6f0"></path><path d="M311 396L299 480L413 426Z" fill="#e8d3c8" stroke="#e8d3c8"></path><path d="M484 600L574 600L513 511Z" fill="#eddcd1" stroke="#eddcd1"></path><path d="M472 94L377 107L463 172Z" fill="#f3e4db" stroke="#f3e4db"></path><path d="M718 478L792 399L677 416Z" fill="#f3e4db" stroke="#f3e4db"></path><path d="M685 162L622 78L579 198Z" fill="#e2cabe" stroke="#e2cabe"></path><path d="M276 600L438 600L400 495Z" fill="#c69e92" stroke="#c69e92"></path><path d="M771 302L771 191L691 315Z" fill="#c69e92" stroke="#c69e92"></path><path d="M685 162L717 76L622 78Z" fill="#f3e4db" stroke="#f3e4db"></path><path d="M900 220L771 191L771 302Z" fill="#fff6f0" stroke="#fff6f0"></path><path d="M268 169L224 284L293 314Z" fill="#c69e92" stroke="#c69e92"></path><path d="M293 314L209 422L311 396Z" fill="#c69e92" stroke="#c69e92"></path><path d="M377 107L268 169L439 234Z" fill="#eddcd1" stroke="#eddcd1"></path><path d="M574 600L682 600L589 461Z" fill="#e2cabe" stroke="#e2cabe"></path><path d="M718 478L821 532L792 399Z" fill="#e8d3c8" stroke="#e8d3c8"></path><path d="M377 107L286 123L268 169Z" fill="#c69e92" stroke="#c69e92"></path><path d="M787 106L717 76L685 162Z" fill="#e2cabe" stroke="#e2cabe"></path><path d="M224 284L209 422L293 314Z" fill="#d7b8ac" stroke="#d7b8ac"></path><path d="M299 480L276 600L400 495Z" fill="#c69e92" stroke="#c69e92"></path><path d="M209 422L222 480L299 480Z" fill="#fff6f0" stroke="#fff6f0"></path><path d="M472 94L411 0L377 107Z" fill="#f9ede6" stroke="#f9ede6"></path><path d="M377 107L303 0L286 123Z" fill="#f3e4db" stroke="#f3e4db"></path><path d="M622 78L464 0L472 94Z" fill="#f9ede6" stroke="#f9ede6"></path><path d="M626 0L464 0L622 78Z" fill="#d1b0a3" stroke="#d1b0a3"></path><path d="M771 191L787 106L685 162Z" fill="#dcc1b5" stroke="#dcc1b5"></path><path d="M900 220L787 106L771 191Z" fill="#cca79a" stroke="#cca79a"></path><path d="M735 0L626 0L717 76Z" fill="#e8d3c8" stroke="#e8d3c8"></path><path d="M717 76L626 0L622 78Z" fill="#cca79a" stroke="#cca79a"></path><path d="M464 0L411 0L472 94Z" fill="#d1b0a3" stroke="#d1b0a3"></path><path d="M773 600L821 532L718 478Z" fill="#d1b0a3" stroke="#d1b0a3"></path><path d="M792 399L900 375L771 302Z" fill="#eddcd1" stroke="#eddcd1"></path><path d="M222 480L276 600L299 480Z" fill="#eddcd1" stroke="#eddcd1"></path><path d="M682 600L773 600L718 478Z" fill="#cca79a" stroke="#cca79a"></path><path d="M900 492L900 375L792 399Z" fill="#eddcd1" stroke="#eddcd1"></path><path d="M268 169L170 203L224 284Z" fill="#f3e4db" stroke="#f3e4db"></path><path d="M224 284L122 319L209 422Z" fill="#d7b8ac" stroke="#d7b8ac"></path><path d="M190 66L170 203L268 169Z" fill="#f9ede6" stroke="#f9ede6"></path><path d="M190 66L268 169L286 123Z" fill="#e8d3c8" stroke="#e8d3c8"></path><path d="M900 375L900 285L771 302Z" fill="#c69e92" stroke="#c69e92"></path><path d="M900 285L900 220L771 302Z" fill="#fff6f0" stroke="#fff6f0"></path><path d="M762 0L717 76L787 106Z" fill="#d1b0a3" stroke="#d1b0a3"></path><path d="M762 0L735 0L717 76Z" fill="#d1b0a3" stroke="#d1b0a3"></path><path d="M170 203L122 319L224 284Z" fill="#c69e92" stroke="#c69e92"></path><path d="M209 422L85 426L222 480Z" fill="#eddcd1" stroke="#eddcd1"></path><path d="M222 480L201 600L276 600Z" fill="#f9ede6" stroke="#f9ede6"></path><path d="M411 0L303 0L377 107Z" fill="#dcc1b5" stroke="#dcc1b5"></path><path d="M900 600L900 492L821 532Z" fill="#d7b8ac" stroke="#d7b8ac"></path><path d="M821 532L900 492L792 399Z" fill="#e2cabe" stroke="#e2cabe"></path><path d="M900 69L762 0L787 106Z" fill="#d7b8ac" stroke="#d7b8ac"></path><path d="M92 600L201 600L222 480Z" fill="#dcc1b5" stroke="#dcc1b5"></path><path d="M303 0L190 66L286 123Z" fill="#f3e4db" stroke="#f3e4db"></path><path d="M170 203L113 197L122 319Z" fill="#d7b8ac" stroke="#d7b8ac"></path><path d="M190 66L113 197L170 203Z" fill="#c69e92" stroke="#c69e92"></path><path d="M0 366L85 426L122 319Z" fill="#cca79a" stroke="#cca79a"></path><path d="M122 319L85 426L209 422Z" fill="#d7b8ac" stroke="#d7b8ac"></path><path d="M773 600L900 600L821 532Z" fill="#cca79a" stroke="#cca79a"></path><path d="M900 220L900 69L787 106Z" fill="#c69e92" stroke="#c69e92"></path><path d="M0 467L63 470L85 426Z" fill="#eddcd1" stroke="#eddcd1"></path><path d="M85 426L63 470L222 480Z" fill="#dcc1b5" stroke="#dcc1b5"></path><path d="M303 0L167 0L190 66Z" fill="#c69e92" stroke="#c69e92"></path><path d="M190 66L79 93L113 197Z" fill="#f9ede6" stroke="#f9ede6"></path><path d="M900 69L900 0L762 0Z" fill="#f3e4db" stroke="#f3e4db"></path><path d="M63 470L92 600L222 480Z" fill="#e2cabe" stroke="#e2cabe"></path><path d="M125 0L79 93L190 66Z" fill="#f3e4db" stroke="#f3e4db"></path><path d="M0 298L0 366L122 319Z" fill="#e8d3c8" stroke="#e8d3c8"></path><path d="M167 0L125 0L190 66Z" fill="#fff6f0" stroke="#fff6f0"></path><path d="M0 298L122 319L0 231Z" fill="#f3e4db" stroke="#f3e4db"></path><path d="M63 470L0 600L92 600Z" fill="#c69e92" stroke="#c69e92"></path><path d="M0 231L122 319L113 197Z" fill="#d1b0a3" stroke="#d1b0a3"></path><path d="M0 129L113 197L79 93Z" fill="#e2cabe" stroke="#e2cabe"></path><path d="M0 129L0 231L113 197Z" fill="#e2cabe" stroke="#e2cabe"></path><path d="M0 366L0 467L85 426Z" fill="#c69e92" stroke="#c69e92"></path><path d="M0 0L0 129L79 93Z" fill="#cca79a" stroke="#cca79a"></path><path d="M0 467L0 600L63 470Z" fill="#e8d3c8" stroke="#e8d3c8"></path><path d="M125 0L0 0L79 93Z" fill="#e8d3c8" stroke="#e8d3c8"></path></g></svg>